<svg width="24" height="24" viewBox="0 0 24 24" fill="none" xmlns="http://www.w3.org/2000/svg">
<path d="M2.39795 20.002V16.0523C2.39795 15.5069 2.59711 15.0347 2.99543 14.6357C3.39375 14.2367 3.86629 14.0372 4.41306 14.0372H7.21407C7.47219 14.0372 7.6677 14.0674 7.80061 14.1279C7.93351 14.1884 8.0537 14.279 8.16117 14.3999C8.59106 15.0582 9.1385 15.5653 9.80349 15.9213C10.4685 16.2774 11.1976 16.4554 11.9907 16.4554C12.7559 16.4554 13.4777 16.2774 14.1561 15.9213C14.8346 15.5653 15.4021 15.0582 15.8589 14.3999C15.9261 14.279 16.0308 14.1884 16.1731 14.1279C16.3154 14.0674 16.5129 14.0372 16.7657 14.0372H19.5869C20.1323 14.0372 20.6045 14.2367 21.0035 14.6357C21.4025 15.0347 21.602 15.5069 21.602 16.0523V20.002H14.67V18.1077C14.2535 18.2958 13.8136 18.4302 13.3501 18.5108C12.8866 18.5914 12.4341 18.6317 11.9926 18.6317C11.552 18.6317 11.1055 18.5981 10.6532 18.5309C10.2009 18.4637 9.75983 18.3361 9.32994 18.148V20.002H2.39795ZM11.9875 15.1657C11.5189 15.1657 11.0831 15.0515 10.6801 14.8231C10.277 14.5947 9.94791 14.2925 9.69266 13.9163C9.39711 13.5267 9.06797 13.248 8.70525 13.08C8.34253 12.9121 7.92608 12.8147 7.45588 12.7878C8.2888 12.3983 9.0685 12.0926 9.79499 11.871C10.5215 11.6493 11.2531 11.5385 11.9899 11.5385C12.7401 11.5385 13.4818 11.6493 14.215 11.871C14.9482 12.0926 15.7246 12.3983 16.544 12.7878C16.0604 12.8147 15.6406 12.9088 15.2846 13.07C14.9286 13.2312 14.6095 13.5133 14.3274 13.9163C14.0587 14.279 13.719 14.5779 13.3082 14.813C12.8974 15.0481 12.4572 15.1657 11.9875 15.1657ZM5.70273 11.9415C4.9549 11.9415 4.31454 11.6745 3.78167 11.1405C3.24878 10.6065 2.98233 9.96484 2.98233 9.21543C2.98233 8.48033 3.24933 7.8441 3.78332 7.30674C4.3173 6.76938 4.95899 6.50069 5.7084 6.50069C6.4435 6.50069 7.07973 6.77072 7.61709 7.31077C8.15446 7.85082 8.42314 8.4876 8.42314 9.2211C8.42314 9.96893 8.15311 10.6093 7.61306 11.1422C7.07301 11.6751 6.43624 11.9415 5.70273 11.9415ZM18.277 11.9415C17.5292 11.9415 16.8888 11.6745 16.356 11.1405C15.8231 10.6065 15.5566 9.96484 15.5566 9.21543C15.5566 8.48033 15.8236 7.8441 16.3576 7.30674C16.8916 6.76938 17.5333 6.50069 18.2827 6.50069C19.0178 6.50069 19.654 6.77072 20.1914 7.31077C20.7288 7.85082 20.9974 8.4876 20.9974 9.2211C20.9974 9.96893 20.7274 10.6093 20.1874 11.1422C19.6473 11.6751 19.0105 11.9415 18.277 11.9415ZM11.9899 9.44276C11.2421 9.44276 10.6017 9.17576 10.0688 8.64177C9.53593 8.10779 9.26948 7.4661 9.26948 6.71669C9.26948 5.98159 9.53648 5.34536 10.0705 4.808C10.6044 4.27063 11.2461 4.00195 11.9955 4.00195C12.7306 4.00195 13.3669 4.27198 13.9042 4.81203C14.4416 5.35208 14.7103 5.98885 14.7103 6.72236C14.7103 7.47019 14.4403 8.11055 13.9002 8.64342C13.3602 9.17631 12.7234 9.44276 11.9899 9.44276Z" fill="#3D5AFE"/>
</svg>
